<svg width="18" height="18" viewBox="0 0 18 18" fill="none" xmlns="http://www.w3.org/2000/svg">
<path d="M13.185 6.696H4.815C4.743 6.696 4.68 6.696 4.608 6.696V5.652C4.608 3.015 5.355 1.26 9 1.26C12.897 1.26 13.392 3.159 13.392 4.815C13.392 5.166 13.671 5.445 14.022 5.445C14.373 5.445 14.652 5.166 14.652 4.815C14.652 1.62 12.753 0 9 0C3.933 0 3.348 3.222 3.348 5.652V6.777C0.828 7.092 0 8.37 0 11.511V13.185C0 16.875 1.125 18 4.815 18H13.185C16.875 18 18 16.875 18 13.185V11.511C18 7.821 16.875 6.696 13.185 6.696ZM9 15.066C7.497 15.066 6.282 13.842 6.282 12.348C6.282 10.845 7.506 9.63 9 9.63C10.494 9.63 11.718 10.854 11.718 12.348C11.718 13.851 10.503 15.066 9 15.066Z" fill="#AEBFD7"/>
</svg>
