<svg width="18" height="18" viewBox="0 0 18 18" fill="none" xmlns="http://www.w3.org/2000/svg">
<path d="M17.208 4.482L13.518 0.792C13.086 0.36 12.222 0 11.61 0H6.39C5.778 0 4.914 0.36 4.482 0.792L0.792 4.482C0.36 4.914 0 5.778 0 6.39V11.61C0 12.222 0.36 13.086 0.792 13.518L4.482 17.208C4.914 17.64 5.778 18 6.39 18H11.61C12.222 18 13.086 17.64 13.518 17.208L17.208 13.518C17.64 13.086 18 12.222 18 11.61V6.39C18 5.778 17.64 4.914 17.208 4.482ZM12.627 11.673C12.888 11.934 12.888 12.366 12.627 12.627C12.492 12.762 12.321 12.825 12.15 12.825C11.979 12.825 11.808 12.762 11.673 12.627L9 9.954L6.327 12.627C6.192 12.762 6.021 12.825 5.85 12.825C5.679 12.825 5.508 12.762 5.373 12.627C5.112 12.366 5.112 11.934 5.373 11.673L8.046 9L5.373 6.327C5.112 6.066 5.112 5.634 5.373 5.373C5.634 5.112 6.066 5.112 6.327 5.373L9 8.046L11.673 5.373C11.934 5.112 12.366 5.112 12.627 5.373C12.888 5.634 12.888 6.066 12.627 6.327L9.954 9L12.627 11.673Z" fill="#AEBFD7"/>
</svg>
