<svg width="19" height="18" viewBox="0 0 19 18" fill="none" xmlns="http://www.w3.org/2000/svg">
<path d="M17.6392 7.86795L16.4214 6.44275C16.1959 6.17214 16.0065 5.667 16.0065 5.30619V3.77274C16.0065 2.81659 15.2217 2.03182 14.2656 2.03182H12.7321C12.3713 2.03182 11.8572 1.8424 11.5866 1.61689L10.1614 0.399148C9.53896 -0.133049 8.51967 -0.133049 7.89727 0.399148L6.45402 1.61689C6.18341 1.8424 5.67828 2.03182 5.31746 2.03182H3.75695C2.8008 2.03182 2.01604 2.81659 2.01604 3.77274V5.30619C2.01604 5.65798 1.83563 6.16312 1.61012 6.43373L0.392383 7.86795C-0.130794 8.49937 -0.130794 9.50965 0.392383 10.123L1.61012 11.5573C1.83563 11.8188 2.01604 12.333 2.01604 12.6848V14.2273C2.01604 15.1834 2.8008 15.9682 3.75695 15.9682H5.32648C5.67828 15.9682 6.19243 16.1576 6.46304 16.3831L7.88825 17.6009C8.51065 18.1331 9.52994 18.1331 10.1523 17.6009L11.5775 16.3831C11.8482 16.1576 12.3533 15.9682 12.7141 15.9682H14.2476C15.2037 15.9682 15.9885 15.1834 15.9885 14.2273V12.6938C15.9885 12.333 16.1779 11.8279 16.4034 11.5573L17.6211 10.132C18.1714 9.51867 18.1714 8.49937 17.6392 7.86795ZM8.33926 5.51366C8.33926 5.14382 8.64595 4.83713 9.01579 4.83713C9.38562 4.83713 9.69231 5.14382 9.69231 5.51366V9.87046C9.69231 10.2403 9.38562 10.547 9.01579 10.547C8.64595 10.547 8.33926 10.2403 8.33926 9.87046V5.51366ZM9.01579 13.3974C8.51967 13.3974 8.11376 12.9915 8.11376 12.4954C8.11376 11.9992 8.51065 11.5933 9.01579 11.5933C9.5119 11.5933 9.91782 11.9992 9.91782 12.4954C9.91782 12.9915 9.52092 13.3974 9.01579 13.3974Z" fill="#AEBFD7"/>
</svg>
