<svg width="16" height="18" viewBox="0 0 16 18" fill="none" xmlns="http://www.w3.org/2000/svg">
<path d="M9.95371 0H5.72371C4.78771 0 4.02271 0.756001 4.02271 1.692V2.538C4.02271 3.474 4.77871 4.23 5.71471 4.23H9.95371C10.8897 4.23 11.6457 3.474 11.6457 2.538V1.692C11.6547 0.756001 10.8897 0 9.95371 0Z" fill="#AEBFD7"/>
<path d="M12.555 2.53798C12.555 3.96898 11.385 5.13899 9.95401 5.13899H5.72401C4.293 5.13899 3.123 3.96898 3.123 2.53798C3.123 2.03398 2.583 1.71898 2.133 1.95298C0.864001 2.62798 0 3.96898 0 5.50799V13.977C0 16.191 1.809 18 4.023 18H11.655C13.869 18 15.678 16.191 15.678 13.977V5.50799C15.678 3.96898 14.814 2.62798 13.545 1.95298C13.095 1.71898 12.555 2.03398 12.555 2.53798ZM10.845 9.65699L7.24501 13.257C7.11001 13.392 6.93901 13.455 6.76801 13.455C6.59701 13.455 6.42601 13.392 6.29101 13.257L4.941 11.907C4.68 11.646 4.68 11.214 4.941 10.953C5.20201 10.692 5.63401 10.692 5.89501 10.953L6.76801 11.826L9.89101 8.70299C10.152 8.44199 10.584 8.44199 10.845 8.70299C11.106 8.96399 11.106 9.39599 10.845 9.65699Z" fill="#AEBFD7"/>
</svg>
