<svg width="21" height="20" viewBox="0 0 21 20" fill="none" xmlns="http://www.w3.org/2000/svg">
<path d="M12.7907 20H7.2093C2.15814 20 0 17.8419 0 12.7907V7.2093C0 2.15814 2.15814 0 7.2093 0H12.7907C17.8419 0 20 2.15814 20 7.2093V12.7907C20 17.8419 17.8419 20 12.7907 20ZM7.2093 1.39535C2.92093 1.39535 1.39535 2.92093 1.39535 7.2093V12.7907C1.39535 17.0791 2.92093 18.6047 7.2093 18.6047H12.7907C17.0791 18.6047 18.6047 17.0791 18.6047 12.7907V7.2093C18.6047 2.92093 17.0791 1.39535 12.7907 1.39535H7.2093Z" fill="white"/>
<path d="M7.20932 8.83723C5.79537 8.83723 4.65118 7.69304 4.65118 6.27909C4.65118 4.86513 5.79537 3.72095 7.20932 3.72095C8.62328 3.72095 9.76746 4.86513 9.76746 6.27909C9.76746 7.69304 8.62328 8.83723 7.20932 8.83723ZM7.20932 5.1163C6.56746 5.1163 6.04653 5.63723 6.04653 6.27909C6.04653 6.92095 6.56746 7.44188 7.20932 7.44188C7.85118 7.44188 8.37211 6.92095 8.37211 6.27909C8.37211 5.63723 7.85118 5.1163 7.20932 5.1163Z" fill="white"/>
<path d="M1.32094 17.1628C1.09768 17.1628 0.874427 17.0512 0.744194 16.8559C0.530241 16.5396 0.613962 16.1024 0.939543 15.8884L5.52559 12.8094C6.53024 12.1303 7.91629 12.214 8.82792 12.9861L9.13489 13.2559C9.60001 13.6559 10.3907 13.6559 10.8465 13.2559L14.7163 9.93493C15.7023 9.08842 17.2558 9.08842 18.2512 9.93493L19.7675 11.2373C20.0558 11.4884 20.093 11.9256 19.8419 12.2233C19.5907 12.5117 19.1535 12.5489 18.8558 12.2977L17.3395 10.9954C16.8744 10.5954 16.0837 10.5954 15.6186 10.9954L11.7488 14.3163C10.7628 15.1628 9.20931 15.1628 8.21396 14.3163L7.90699 14.0466C7.47908 13.6838 6.7721 13.6466 6.29768 13.9721L1.71164 17.0512C1.59071 17.1256 1.45117 17.1628 1.32094 17.1628Z" fill="white"/>
</svg>
