<svg width="17" height="18" viewBox="0 0 17 18" fill="none" xmlns="http://www.w3.org/2000/svg">
<path d="M12.582 0.0539723C12.321 0.0179724 12.087 0.242972 12.087 0.503972V5.92197C12.087 6.60597 11.682 7.22697 11.052 7.50597C10.422 7.77597 9.693 7.65897 9.189 7.19097L8.406 6.47097C8.235 6.30897 7.974 6.30897 7.794 6.47097L7.011 7.19097C6.687 7.49697 6.264 7.64997 5.841 7.64997C5.607 7.64997 5.373 7.60497 5.148 7.50597C4.518 7.22697 4.113 6.60597 4.113 5.92197V0.503972C4.113 0.242972 3.879 0.0179724 3.618 0.0539723C1.098 0.368972 0 2.06997 0 4.49997V13.5C0 16.2 1.35 18 4.5 18H11.7C14.85 18 16.2 16.2 16.2 13.5V4.49997C16.2 2.06997 15.102 0.368972 12.582 0.0539723ZM13.05 15.075H5.4C5.031 15.075 4.725 14.769 4.725 14.4C4.725 14.031 5.031 13.725 5.4 13.725H13.05C13.419 13.725 13.725 14.031 13.725 14.4C13.725 14.769 13.419 15.075 13.05 15.075ZM13.05 11.475H9.22499C8.856 11.475 8.55 11.169 8.55 10.8C8.55 10.431 8.856 10.125 9.22499 10.125H13.05C13.419 10.125 13.725 10.431 13.725 10.8C13.725 11.169 13.419 11.475 13.05 11.475Z" fill="#AEBFD7"/>
</svg>
