<svg width="19" height="18" viewBox="0 0 19 18" fill="none" xmlns="http://www.w3.org/2000/svg">
<path d="M12.9501 0.378101L4.34052 3.23841C-1.44684 5.17389 -1.44684 8.32977 4.34052 10.2557L6.89573 11.1043L7.74429 13.6595C9.67023 19.4468 12.8356 19.4468 14.7616 13.6595L17.6314 5.05948C18.909 1.19806 16.8115 -0.909039 12.9501 0.378101ZM13.2552 5.50759L9.6321 9.14972C9.48908 9.29274 9.30793 9.35948 9.12678 9.35948C8.94562 9.35948 8.76447 9.29274 8.62145 9.14972C8.34496 8.87322 8.34496 8.41558 8.62145 8.13908L12.2445 4.49695C12.521 4.22045 12.9787 4.22045 13.2552 4.49695C13.5317 4.77345 13.5317 5.2311 13.2552 5.50759Z" fill="#AEBFD7"/>
</svg>
