<svg width="18" height="18" viewBox="0 0 18 18" fill="none" xmlns="http://www.w3.org/2000/svg">
<path d="M12.771 0H5.229C1.953 0 0 1.953 0 5.229V12.762C0 16.047 1.953 18 5.229 18H12.762C16.038 18 17.991 16.047 17.991 12.771V5.229C18 1.953 16.047 0 12.771 0ZM13.734 7.164L11.655 9.846C11.394 10.179 11.025 10.395 10.602 10.44C10.179 10.494 9.765 10.377 9.432 10.116L7.785 8.82C7.722 8.766 7.65 8.766 7.614 8.775C7.578 8.775 7.515 8.793 7.461 8.865L5.319 11.646C5.184 11.817 4.986 11.907 4.788 11.907C4.644 11.907 4.5 11.862 4.374 11.763C4.077 11.538 4.023 11.115 4.248 10.818L6.39 8.037C6.651 7.704 7.02 7.488 7.443 7.434C7.857 7.38 8.28 7.497 8.613 7.758L10.26 9.054C10.323 9.108 10.386 9.108 10.431 9.099C10.467 9.099 10.53 9.081 10.584 9.009L12.663 6.327C12.888 6.03 13.32 5.976 13.608 6.21C13.905 6.453 13.959 6.876 13.734 7.164Z" fill="#AEBFD7"/>
</svg>
