<svg width="15" height="20" viewBox="0 0 15 20" fill="none" xmlns="http://www.w3.org/2000/svg">
<path d="M7.04004 0C4.42004 0 2.29004 2.13 2.29004 4.75C2.29004 7.32 4.30004 9.4 6.92004 9.49C7.00004 9.48 7.08004 9.48 7.14004 9.49C7.16004 9.49 7.17004 9.49 7.19004 9.49C7.20004 9.49 7.20004 9.49 7.21004 9.49C9.77004 9.4 11.78 7.32 11.79 4.75C11.79 2.13 9.66004 0 7.04004 0Z" fill="#AEBFD7"/>
<path d="M12.12 12.1599C9.33 10.2999 4.78 10.2999 1.97 12.1599C0.7 12.9999 0 14.1499 0 15.3799C0 16.6099 0.7 17.7499 1.96 18.5899C3.36 19.5299 5.2 19.9999 7.04 19.9999C8.88 19.9999 10.72 19.5299 12.12 18.5899C13.38 17.7399 14.08 16.5999 14.08 15.3599C14.07 14.1399 13.38 12.9899 12.12 12.1599ZM9.37 14.5599L6.85 17.0799C6.73 17.1999 6.57 17.2599 6.41 17.2599C6.25 17.2599 6.09 17.1899 5.97 17.0799L4.71 15.8199C4.47 15.5799 4.47 15.1799 4.71 14.9399C4.95 14.6999 5.35 14.6999 5.59 14.9399L6.41 15.7599L8.49 13.6799C8.73 13.4399 9.13 13.4399 9.37 13.6799C9.62 13.9199 9.62 14.3199 9.37 14.5599Z" fill="#AEBFD7"/>
</svg>
