<svg width="17" height="18" viewBox="0 0 17 18" fill="none" xmlns="http://www.w3.org/2000/svg">
<path d="M14.931 3.465L9.585 0.378C8.712 -0.126 7.632 -0.126 6.75 0.378L1.413 3.465C0.54 3.969 0 4.905 0 5.922V12.078C0 13.086 0.54 14.022 1.413 14.535L6.759 17.622C7.632 18.126 8.712 18.126 9.594 17.622L14.94 14.535C15.813 14.031 16.353 13.095 16.353 12.078V5.922C16.344 4.905 15.804 3.978 14.931 3.465ZM8.172 4.806C9.333 4.806 10.269 5.742 10.269 6.903C10.269 8.064 9.333 9 8.172 9C7.011 9 6.075 8.064 6.075 6.903C6.075 5.751 7.011 4.806 8.172 4.806ZM10.584 13.194H5.76C5.031 13.194 4.608 12.384 5.013 11.781C5.625 10.872 6.813 10.26 8.172 10.26C9.531 10.26 10.719 10.872 11.331 11.781C11.736 12.375 11.304 13.194 10.584 13.194Z" fill="#AEBFD7"/>
</svg>
