<svg width="18" height="17" viewBox="0 0 18 17" fill="none" xmlns="http://www.w3.org/2000/svg">
<path d="M15.363 1.25004C14.769 0.809037 13.914 1.23204 13.914 1.97904V2.06904C13.914 3.12204 13.158 4.09404 12.105 4.20204C10.89 4.32804 9.864 3.37404 9.864 2.18604V1.25004C9.864 0.755037 9.459 0.350037 8.964 0.350037H8.136C7.641 0.350037 7.236 0.755037 7.236 1.25004V2.18604C7.236 2.89704 6.867 3.52704 6.309 3.87804C6.228 3.93204 6.138 3.97704 6.048 4.02204C5.967 4.06704 5.877 4.10304 5.778 4.13004C5.67 4.16604 5.553 4.19304 5.427 4.20204C5.283 4.22004 5.139 4.22004 4.995 4.20204C4.869 4.19304 4.752 4.16604 4.644 4.13004C4.554 4.10304 4.464 4.06704 4.374 4.02204C4.284 3.97704 4.194 3.93204 4.113 3.87804C3.546 3.48204 3.186 2.79804 3.186 2.06904V1.97904C3.186 1.28604 2.448 0.872036 1.863 1.16904C1.854 1.17804 1.845 1.17804 1.836 1.18704C1.8 1.20504 1.773 1.22304 1.737 1.25004C1.71 1.27704 1.674 1.29504 1.647 1.32204C1.395 1.52004 1.17 1.74504 0.981 1.98804C0.882 2.09604 0.801 2.21304 0.729 2.33004C0.72 2.33904 0.711 2.34804 0.702 2.36604C0.621 2.48304 0.549 2.61804 0.486 2.74404C0.468 2.76204 0.459 2.77104 0.459 2.78904C0.405 2.89704 0.351 3.00504 0.315 3.12204C0.288 3.16704 0.279 3.20304 0.261 3.24804C0.207 3.38304 0.171 3.51804 0.135 3.65304C0.0990001 3.77904 0.072 3.91404 0.0539999 4.04904C0.036 4.14804 0.027 4.24704 0.018 4.35504C0.00899998 4.48104 0 4.60704 0 4.73304V12.617C0 15.038 1.962 17 4.383 17H12.717C15.138 17 17.1 15.038 17.1 12.617V4.73304C17.1 3.30204 16.416 2.05104 15.363 1.25004ZM8.55 12.878H4.374C4.005 12.878 3.699 12.572 3.699 12.203C3.699 11.825 4.005 11.519 4.374 11.519H8.55C8.928 11.519 9.225 11.825 9.225 12.203C9.225 12.572 8.928 12.878 8.55 12.878ZM11.052 9.53904H4.374C4.005 9.53904 3.699 9.23304 3.699 8.86404C3.699 8.48604 4.005 8.18004 4.374 8.18004H11.052C11.43 8.18004 11.736 8.48604 11.736 8.86404C11.736 9.23304 11.43 9.53904 11.052 9.53904Z" fill="#AEBFD7"/>
</svg>
