<svg width="53" height="54" viewBox="0 0 53 54" fill="none" xmlns="http://www.w3.org/2000/svg">
<path d="M21.6746 17.4355C20.6381 16.3371 19.9883 14.8519 19.9883 13.2275C19.9883 9.85484 22.7421 7.10104 26.1147 7.10104C29.4873 7.10104 32.2411 9.85484 32.2411 13.2275C32.2411 14.4497 31.8698 15.5945 31.251 16.5537L31.7306 16.9095C32.4268 15.8575 32.829 14.5889 32.829 13.212C32.829 9.49901 29.8277 6.49768 26.1147 6.49768C22.4017 6.49768 19.4004 9.49901 19.4004 13.212C19.4004 14.9757 20.0811 16.5846 21.195 17.7759L21.6746 17.4355Z" fill="#2A60B7"/>
<path d="M24.7377 23.825C24.8924 24.0106 25.1864 24.351 25.0471 24.8306C24.9079 25.3566 24.0725 25.898 24.1498 26.2539C24.8924 25.5577 25.4184 25.0781 26.2229 24.2581L24.7377 23.825Z" fill="#2A60B7"/>
<path d="M14.8675 26.2694L13.011 24.8925C13.3668 25.403 13.5215 26.0064 12.9646 26.8418C13.5834 26.8263 14.094 26.6097 14.8675 26.2694Z" fill="#2A60B7"/>
<path d="M20.5761 25.403L19.261 24.382C19.4776 24.7223 19.4622 24.877 19.0135 25.171C18.6886 25.3721 18.735 25.7124 19.1527 26.0064C20.0346 26.5943 22.4635 27.0584 23.3763 27.1667C22.5872 26.8728 20.1738 25.8362 20.5761 25.403Z" fill="#2A60B7"/>
<path d="M32.2875 25.0937L27.3369 23.1753L27.3059 23.2062C28.9149 24.2428 29.2552 24.9699 28.853 26.5479C30.3072 25.6661 31.3128 25.3721 32.2875 25.0937Z" fill="#2A60B7"/>
<path d="M41.2451 24.5212C41.4462 24.7533 41.4772 25.1246 41.7402 25.2948C42.1888 25.5887 42.6065 25.697 43.148 25.8208C43.705 25.5887 44.2929 25.3412 44.8653 25.0627L41.2451 24.5212Z" fill="#2A60B7"/>
<path d="M40.1002 25.465L36.3098 23.7632C37.7795 25.2638 37.9033 26.8883 40.2703 26.9966C39.7753 26.5325 39.6515 26.0064 40.1002 25.465Z" fill="#2A60B7"/>
<path d="M33.7728 24.7068C32.5506 25.4649 32.2876 26.8108 30.4775 27.3678C32.5816 27.507 33.2623 25.8671 34.2369 25.2637L33.7728 24.7068Z" fill="#2A60B7"/>
<path d="M34.0512 11.8352L45.1283 9.7621C44.8808 9.42175 44.6332 9.09686 44.3857 8.77197L33.9739 11.3556C34.0048 11.5258 34.0358 11.6805 34.0512 11.8352Z" fill="#2A60B7"/>
<path d="M33.8654 10.9997L43.7512 8.02933C43.4882 7.73538 43.2252 7.45691 42.9622 7.16296L33.7107 10.5356C33.7726 10.6903 33.819 10.845 33.8654 10.9997Z" fill="#2A60B7"/>
<path d="M33.4633 9.90137L41.7866 6.03368C41.5236 5.78615 41.2451 5.55408 40.9667 5.32202L33.2622 9.48366C33.3241 9.6229 33.4014 9.76214 33.4633 9.90137Z" fill="#2A60B7"/>
<path d="M34.1594 12.7015L46.4122 11.7423C46.1956 11.3555 45.9636 10.9842 45.7315 10.6284L34.1284 12.2219C34.1284 12.3766 34.1439 12.5313 34.1594 12.7015Z" fill="#2A60B7"/>
<path d="M32.0244 7.75084L37.2536 2.83113C36.9751 2.67642 36.6966 2.53719 36.4181 2.39795L31.6841 7.41048C31.8078 7.51877 31.9161 7.62707 32.0244 7.75084Z" fill="#2A60B7"/>
<path d="M30.7094 6.60602L34.2367 1.45426C33.9737 1.36143 33.6952 1.25314 33.4168 1.17578L30.3071 6.34302C30.4464 6.42038 30.5856 6.5132 30.7094 6.60602Z" fill="#2A60B7"/>
<path d="M31.4056 7.13202L35.7374 2.05761C35.4589 1.93384 35.1804 1.81008 34.902 1.70178L31.0188 6.82261C31.158 6.9309 31.2818 7.0392 31.4056 7.13202Z" fill="#2A60B7"/>
<path d="M34.175 13.2275C34.175 13.3358 34.175 13.4441 34.1595 13.5524L47.5108 13.9392C47.3251 13.5215 47.124 13.1037 46.9074 12.686L34.144 13.0573C34.175 13.1347 34.175 13.1811 34.175 13.2275Z" fill="#2A60B7"/>
<path d="M32.5815 8.41608L38.7698 3.72843C38.4914 3.54278 38.2129 3.3726 37.9344 3.2179L32.2876 8.04478C32.3959 8.16855 32.4887 8.29231 32.5815 8.41608Z" fill="#2A60B7"/>
<path d="M33.0611 9.14328L40.2859 4.79599C40.0075 4.59487 39.729 4.37828 39.4505 4.19263L32.7981 8.74104C32.9064 8.8648 32.9837 9.00404 33.0611 9.14328Z" fill="#2A60B7"/>
<path d="M17.5285 19.1993L19.4932 17.8533C19.4004 17.7296 19.3231 17.5903 19.2302 17.4666L17.0024 18.8125L17.5285 19.1993Z" fill="#2A60B7"/>
<path d="M12.6396 20.3286L15.6873 18.9362L19.029 17.1416C18.9516 17.0023 18.8743 16.8631 18.8124 16.7239L12.2373 19.7871L12.6396 20.3286Z" fill="#2A60B7"/>
<path d="M29.9823 6.14186L32.767 0.959146C32.504 0.881792 32.241 0.804437 31.9625 0.742554L29.5491 5.92526C29.6883 6.00262 29.843 6.0645 29.9823 6.14186Z" fill="#2A60B7"/>
<path d="M18.3947 19.849L18.9826 19.4159L20.0191 18.534C19.9108 18.4103 19.818 18.2865 19.7252 18.1627L17.946 19.5087L18.3947 19.849Z" fill="#2A60B7"/>
<path d="M36.573 18.9518L37.5477 19.4932L40.9822 21.3343L41.8331 20.6381L33.386 16.7085C33.3241 16.8477 33.2468 16.987 33.1694 17.1262L36.573 18.9518Z" fill="#2A60B7"/>
<path d="M33.9275 15.2697L49.1198 19.0445C49.027 18.5495 48.9187 18.0544 48.7949 17.5593L34.0358 14.8055C33.9894 14.9602 33.9584 15.115 33.9275 15.2697Z" fill="#2A60B7"/>
<path d="M33.6643 16.0742L49.0887 21.7055C49.2124 21.5818 49.3207 21.458 49.429 21.3188C49.3981 20.9629 49.3671 20.6226 49.3207 20.2822L33.819 15.641C33.7726 15.7802 33.7107 15.9349 33.6643 16.0742Z" fill="#2A60B7"/>
<path d="M34.0977 14.4188L48.4545 16.3991C48.3153 15.9349 48.1451 15.4708 47.9749 15.0222L34.1441 13.9392C34.1286 14.1094 34.1131 14.2641 34.0977 14.4188Z" fill="#2A60B7"/>
<path d="M35.5364 19.7717L36.0934 19.323L32.9837 17.451C32.9219 17.5439 32.86 17.6367 32.7981 17.7295L35.5364 19.7717Z" fill="#2A60B7"/>
<path d="M19.4004 8.741L12.748 4.17712C12.4695 4.37824 12.1911 4.57936 11.9126 4.78048L19.1529 9.14324C19.2303 9.00401 19.3231 8.86477 19.4004 8.741Z" fill="#2A60B7"/>
<path d="M18.503 10.5511L9.23604 7.17847C8.97303 7.45694 8.69455 7.75089 8.44702 8.04483L18.3483 11.0152C18.3947 10.845 18.4411 10.6903 18.503 10.5511Z" fill="#2A60B7"/>
<path d="M20.5297 7.41057L15.7956 2.38257C15.5171 2.52181 15.2387 2.66104 14.9602 2.81575L20.1893 7.75093C20.2976 7.62716 20.4059 7.51887 20.5297 7.41057Z" fill="#2A60B7"/>
<path d="M18.1009 12.2219L6.48232 10.6284C6.25026 10.9997 6.01819 11.371 5.78613 11.7423L18.0545 12.7015C18.0699 12.5313 18.0854 12.3766 18.1009 12.2219Z" fill="#2A60B7"/>
<path d="M18.9671 9.46819L11.2472 5.32202C10.9687 5.55408 10.6902 5.78615 10.4272 6.03368L18.766 9.91684C18.8279 9.76214 18.8898 9.6229 18.9671 9.46819Z" fill="#2A60B7"/>
<path d="M19.9264 8.04487L14.2641 3.20251C13.9857 3.37269 13.7072 3.54287 13.4287 3.71305L19.6325 8.41617C19.7253 8.2924 19.8336 8.16863 19.9264 8.04487Z" fill="#2A60B7"/>
<path d="M18.2555 11.3711L7.81276 8.77197C7.54976 9.09686 7.30222 9.42175 7.05469 9.7621L18.1472 11.8352C18.1936 11.6805 18.2246 11.5258 18.2555 11.3711Z" fill="#2A60B7"/>
<path d="M18.1936 14.8055L3.40351 17.5748C3.27974 18.0699 3.17144 18.5495 3.07861 19.06L18.3019 15.2697C18.2554 15.115 18.2245 14.9602 18.1936 14.8055Z" fill="#2A60B7"/>
<path d="M28.8993 5.66228L30.7868 0.479568C30.5238 0.433156 30.2608 0.371274 29.9978 0.340332L28.4507 5.52304C28.6054 5.55398 28.7601 5.6004 28.8993 5.66228Z" fill="#2A60B7"/>
<path d="M3.14049 21.7055L18.5649 16.0741C18.503 15.9349 18.4566 15.7802 18.4102 15.6255L2.89297 20.2822C2.84655 20.6226 2.81561 20.9474 2.78467 21.2878C2.89296 21.4425 3.01673 21.5663 3.14049 21.7055Z" fill="#2A60B7"/>
<path d="M18.0698 13.9547L4.22349 15.0377C4.05331 15.4863 3.88313 15.9504 3.7439 16.4146L18.1317 14.4343C18.1008 14.2641 18.0853 14.1094 18.0698 13.9547Z" fill="#2A60B7"/>
<path d="M18.039 13.2276C18.039 13.1812 18.039 13.1348 18.039 13.0883L5.2601 12.717C5.04351 13.1193 4.85786 13.537 4.65674 13.9702L18.039 13.5679C18.039 13.4596 18.039 13.3359 18.039 13.2276Z" fill="#2A60B7"/>
<path d="M25.4803 5.18274L25.0781 0.0155029C25.0626 0.0155029 25.0471 0.0155029 25.0162 0.0155029C24.9543 0.0155029 24.8924 0.0155039 24.8305 0.0309746C24.6449 0.0464454 24.4592 0.046445 24.2891 0.0619157L25.0007 5.22915C25.1554 5.21368 25.3101 5.19821 25.4803 5.18274Z" fill="#2A60B7"/>
<path d="M27.9403 0.0774187C27.6773 0.0619479 27.4143 0.0464766 27.1513 0.0310059L26.749 5.19824C26.9037 5.21372 27.0739 5.22919 27.2286 5.24466L27.9403 0.0774187Z" fill="#2A60B7"/>
<path d="M26.1147 5.16724C26.1921 5.16724 26.2694 5.16724 26.3622 5.16724L26.5169 0C26.3777 0 26.2539 0 26.1147 0C26.0064 0 25.8826 0 25.7744 0H25.7434L25.8981 5.16724C25.9445 5.16724 26.0219 5.16724 26.1147 5.16724Z" fill="#2A60B7"/>
<path d="M28.0795 5.39932L29.3635 0.216605C29.1005 0.185663 28.8375 0.154721 28.5745 0.123779L27.5999 5.29102C27.77 5.33743 27.9247 5.36837 28.0795 5.39932Z" fill="#2A60B7"/>
<path d="M21.9066 6.34299L18.797 1.16028C18.5185 1.2531 18.2555 1.34593 17.9771 1.43875L21.5044 6.59052C21.6436 6.51317 21.7674 6.42034 21.9066 6.34299Z" fill="#2A60B7"/>
<path d="M22.6647 5.92535L20.2513 0.727173C19.9882 0.789056 19.7098 0.866409 19.4468 0.943763L22.247 6.12647C22.3862 6.06459 22.5255 6.00271 22.6647 5.92535Z" fill="#2A60B7"/>
<path d="M21.1949 6.83811L17.3117 1.71729C17.0333 1.82558 16.7548 1.94935 16.4763 2.07311L20.8236 7.14753C20.9474 7.03923 21.0711 6.93094 21.1949 6.83811Z" fill="#2A60B7"/>
<path d="M23.7631 5.50766L22.216 0.324951C21.953 0.371364 21.69 0.417777 21.427 0.46419L23.3144 5.66237C23.4537 5.60049 23.6084 5.55407 23.7631 5.50766Z" fill="#2A60B7"/>
<path d="M24.614 5.30652L23.6393 0.139282C23.3763 0.170224 23.1133 0.201166 22.8503 0.232108L24.1344 5.41482C24.2891 5.36841 24.4438 5.33746 24.614 5.30652Z" fill="#2A60B7"/>
<path fill-rule="evenodd" clip-rule="evenodd" d="M38.5068 29.5028C38.4913 29.0542 38.5841 28.6519 38.7698 28.2806H13.4441C13.6297 28.6519 13.7226 29.0542 13.7071 29.5028C13.6762 30.7096 12.8407 31.6223 11.8042 31.9008L11.8661 32.0555L11.8816 32.1019L11.928 32.2102L11.9434 32.2412L11.9899 32.3495L12.0053 32.3959L12.0517 32.5042L12.0672 32.5351L12.1291 32.6589V32.6743L12.191 32.8136C13.5988 35.5364 16.8013 37.4548 20.4988 37.7952H20.5297C21.7983 37.9035 22.9122 37.594 23.3763 36.1553C23.7322 35.0259 23.7322 34.175 24.0571 32.9373C24.3665 31.7461 24.9544 30.6631 25.8671 30.0443C26.4396 29.6575 27.2595 29.5338 27.6772 29.9051C28.4972 29.6266 29.3481 29.936 29.1315 30.6013C29.0541 30.462 28.8685 30.3847 28.7138 30.4001C28.1723 30.4156 27.8319 30.9261 27.4606 31.0809C27.9712 31.0809 28.0949 31.3439 28.9303 31.3129C28.6828 31.6223 28.3115 31.5759 28.0485 31.6842C27.2595 31.9782 27.0893 32.6589 27.1667 33.4479C27.275 34.5927 27.4916 35.7066 28.1259 36.5266C28.8221 37.4239 29.9824 37.8571 31.0963 37.8106H31.1117C31.4366 37.7952 31.7615 37.7642 32.0864 37.7333L32.1483 37.7178H32.1947C33.8655 37.5012 35.5518 36.9288 36.9906 36.016C38.5068 35.0414 39.6825 33.7264 40.3014 32.1947L40.3168 32.1793L40.3632 32.0555L40.4251 31.8853C39.3731 31.6223 38.5377 30.6941 38.5068 29.5028ZM22.6647 36.0934C22.3862 36.3719 21.9994 36.542 21.5663 36.542C21.1331 36.542 20.7463 36.3719 20.4678 36.0934C20.3595 35.9851 20.2667 35.8458 20.1894 35.7066C20.112 35.8458 20.0192 35.9851 19.9109 36.0934C19.6324 36.3719 19.2456 36.542 18.8125 36.542C18.3793 36.542 17.9925 36.3719 17.714 36.0934C17.6057 35.9851 17.5129 35.8458 17.4356 35.7066C17.3582 35.8458 17.2654 35.9851 17.1571 36.0934C17.0797 36.1707 16.9869 36.2481 16.8786 36.31C16.7858 36.2636 16.6775 36.2171 16.5847 36.1707C16.7239 36.1089 16.8631 36.016 16.9714 35.9077C17.1261 35.753 17.2344 35.5674 17.2963 35.3508H17.5593C17.6212 35.5674 17.7295 35.753 17.8842 35.9077C18.1163 36.1398 18.4412 36.279 18.797 36.279C19.1528 36.279 19.4777 36.1398 19.7098 35.9077C19.8645 35.753 19.9728 35.5674 20.0347 35.3508H20.2977C20.3595 35.5674 20.4678 35.753 20.6225 35.9077C20.8546 36.1398 21.1795 36.279 21.5353 36.279C21.8911 36.279 22.216 36.1398 22.4481 35.9077C22.6028 35.753 22.7111 35.5674 22.773 35.3508H23.036C23.005 35.6447 22.8658 35.8923 22.6647 36.0934ZM23.1907 34.4535C23.0979 34.4689 23.005 34.4844 22.8967 34.4844C22.4636 34.4844 22.0768 34.3142 21.7983 34.0358C21.69 33.9275 21.5972 33.7882 21.5198 33.649C21.4425 33.7882 21.3497 33.9275 21.2414 34.0358C20.9629 34.3142 20.5761 34.4844 20.143 34.4844C19.7098 34.4844 19.323 34.3142 19.0445 34.0358C18.9362 33.9275 18.8434 33.7882 18.766 33.649C18.6887 33.7882 18.5959 33.9275 18.4876 34.0358C18.2091 34.3142 17.8223 34.4844 17.3891 34.4844C16.956 34.4844 16.5692 34.3142 16.2907 34.0358C16.1824 33.9275 16.0896 33.7882 16.0123 33.649C15.9349 33.7882 15.8421 33.9275 15.7338 34.0358C15.4553 34.3142 15.0685 34.4844 14.6353 34.4844C14.2022 34.4844 13.8154 34.3142 13.5369 34.0358C13.3358 33.8347 13.1966 33.5871 13.1192 33.3086H13.3822C13.4441 33.5252 13.5524 33.7109 13.7071 33.8656C13.9392 34.0977 14.2641 34.2369 14.6199 34.2369C14.9757 34.2369 15.3006 34.0977 15.5327 33.8656C15.6874 33.7109 15.7957 33.5252 15.8575 33.3086H16.1205C16.1824 33.5252 16.2907 33.7109 16.4454 33.8656C16.6775 34.0977 17.0024 34.2369 17.3582 34.2369C17.714 34.2369 18.0389 34.0977 18.271 33.8656C18.4257 33.7109 18.534 33.5252 18.5959 33.3086H18.8589C18.9208 33.5252 19.0291 33.7109 19.1838 33.8656C19.4158 34.0977 19.7407 34.2369 20.0965 34.2369C20.4524 34.2369 20.7772 34.0977 21.0093 33.8656C21.164 33.7109 21.2723 33.5252 21.3342 33.3086H21.5972C21.6591 33.5252 21.7674 33.7109 21.9221 33.8656C22.1542 34.0977 22.479 34.2369 22.8349 34.2369C22.9586 34.2369 23.0669 34.2214 23.1752 34.1905L23.1907 34.4535ZM23.6703 32.2721C23.5001 32.1947 23.3454 32.0865 23.2216 31.9627C23.1133 31.8544 23.0205 31.7152 22.9432 31.5759C22.8658 31.7152 22.773 31.8544 22.6647 31.9627C22.3862 32.2412 21.9994 32.4113 21.5663 32.4113C21.1331 32.4113 20.7463 32.2412 20.4678 31.9627C20.3595 31.8544 20.2667 31.7152 20.1894 31.5759C20.112 31.7152 20.0192 31.8544 19.9109 31.9627C19.6324 32.2412 19.2456 32.4113 18.8125 32.4113C18.3793 32.4113 17.9925 32.2412 17.714 31.9627C17.6057 31.8544 17.5129 31.7152 17.4356 31.5759C17.3582 31.7152 17.2654 31.8544 17.1571 31.9627C16.8786 32.2412 16.4918 32.4113 16.0587 32.4113C15.6255 32.4113 15.2387 32.2412 14.9602 31.9627C14.8519 31.8544 14.7591 31.7152 14.6818 31.5759C14.6044 31.7152 14.5116 31.8544 14.4033 31.9627C14.1248 32.2412 13.738 32.4113 13.3049 32.4113C13.0264 32.4113 12.7634 32.334 12.5468 32.2102C12.6396 32.1638 12.7324 32.1174 12.8098 32.0555C12.9645 32.1174 13.1347 32.1483 13.3049 32.1483C13.6607 32.1483 13.9856 32.0091 14.2176 31.777C14.3723 31.6223 14.4806 31.4367 14.5425 31.2201H14.8055C14.8674 31.4367 14.9757 31.6223 15.1304 31.777C15.3625 32.0091 15.6874 32.1483 16.0432 32.1483C16.399 32.1483 16.7239 32.0091 16.956 31.777C17.1107 31.6223 17.219 31.4367 17.2809 31.2201H17.5439C17.6057 31.4367 17.714 31.6223 17.8687 31.777C18.1008 32.0091 18.4257 32.1483 18.7815 32.1483C19.1373 32.1483 19.4622 32.0091 19.6943 31.777C19.849 31.6223 19.9573 31.4367 20.0192 31.2201H20.2822C20.3441 31.4367 20.4524 31.6223 20.6071 31.777C20.8391 32.0091 21.164 32.1483 21.5198 32.1483C21.8757 32.1483 22.2006 32.0091 22.4326 31.777C22.5873 31.6223 22.6956 31.4367 22.7575 31.2201H23.0205C23.0824 31.4367 23.1907 31.6223 23.3454 31.777C23.4537 31.8853 23.562 31.9627 23.7012 32.0246C23.7322 32.1019 23.7012 32.1793 23.6703 32.2721ZM24.8925 30.1526C24.7687 30.0753 24.6449 29.9979 24.5366 29.8896C24.4284 29.7813 24.3355 29.6421 24.2582 29.5028C24.1808 29.6421 24.088 29.7813 23.9797 29.8896C23.7012 30.1681 23.3145 30.3383 22.8813 30.3383C22.4481 30.3383 22.0613 30.1681 21.7828 29.8896C21.6746 29.7813 21.5817 29.6421 21.5044 29.5028C21.427 29.6421 21.3342 29.7813 21.2259 29.8896C20.9474 30.1681 20.5607 30.3383 20.1275 30.3383C19.6943 30.3383 19.3075 30.1681 19.0291 29.8896C18.9208 29.7813 18.8279 29.6421 18.7506 29.5028C18.6732 29.6421 18.5804 29.7813 18.4721 29.8896C18.1936 30.1681 17.8069 30.3383 17.3737 30.3383C16.9405 30.3383 16.5537 30.1681 16.2753 29.8896C16.167 29.7813 16.0741 29.6421 15.9968 29.5028C15.9194 29.6421 15.8266 29.7813 15.7183 29.8896C15.4398 30.1681 15.0531 30.3383 14.6199 30.3383C14.4497 30.3383 14.2795 30.3073 14.1248 30.2609C14.1403 30.1835 14.1712 30.0907 14.1867 30.0134C14.3259 30.0598 14.4652 30.0907 14.6199 30.0907C14.9757 30.0907 15.3006 29.9515 15.5327 29.7194C15.6874 29.5647 15.7957 29.3791 15.8575 29.1625H16.1205C16.1824 29.3791 16.2907 29.5647 16.4454 29.7194C16.6775 29.9515 17.0024 30.0907 17.3582 30.0907C17.714 30.0907 18.0389 29.9515 18.271 29.7194C18.4257 29.5647 18.534 29.3791 18.5959 29.1625H18.8589C18.9208 29.3791 19.0291 29.5647 19.1838 29.7194C19.4158 29.9515 19.7407 30.0907 20.0965 30.0907C20.4524 30.0907 20.7772 29.9515 21.0093 29.7194C21.164 29.5647 21.2723 29.3791 21.3342 29.1625H21.5972C21.6591 29.3791 21.7674 29.5647 21.9221 29.7194C22.1542 29.9515 22.479 30.0907 22.8349 30.0907C23.1907 30.0907 23.5156 29.9515 23.7476 29.7194C23.9023 29.5647 24.0106 29.3791 24.0725 29.1625H24.3355C24.3974 29.3791 24.5057 29.5647 24.6604 29.7194C24.7687 29.8277 24.8925 29.9051 25.0162 29.9824C25.0317 30.0134 24.9544 30.0753 24.8925 30.1526ZM29.6265 29.147H29.8895C29.9514 29.3636 30.0597 29.5492 30.2144 29.704C30.4465 29.936 30.7714 30.0753 31.1272 30.0753C31.483 30.0753 31.8079 29.936 32.04 29.704C32.1947 29.5492 32.303 29.3636 32.3649 29.147H32.6279C32.6897 29.3636 32.798 29.5492 32.9528 29.704C33.1848 29.936 33.5097 30.0753 33.8655 30.0753C34.2213 30.0753 34.5462 29.936 34.7783 29.704C34.933 29.5492 35.0413 29.3636 35.1032 29.147H35.3662C35.4281 29.3636 35.5364 29.5492 35.6911 29.704C35.9231 29.936 36.248 30.0753 36.6039 30.0753C36.9597 30.0753 37.2846 29.936 37.5166 29.704C37.6713 29.5492 37.7796 29.3636 37.8415 29.147H37.9343C37.9189 29.2553 37.9189 29.3791 37.9189 29.5028C37.9189 29.5338 37.9189 29.5647 37.9189 29.5802C37.857 29.6885 37.7796 29.7813 37.6868 29.8741C37.4083 30.1526 37.0216 30.3228 36.5884 30.3228C36.1552 30.3228 35.7684 30.1526 35.49 29.8741C35.3817 29.7658 35.2888 29.6266 35.2115 29.4874C35.1341 29.6266 35.0413 29.7658 34.933 29.8741C34.6545 30.1526 34.2678 30.3228 33.8346 30.3228C33.4014 30.3228 33.0146 30.1526 32.7362 29.8741C32.6279 29.7658 32.535 29.6266 32.4577 29.4874C32.3803 29.6266 32.2875 29.7658 32.1792 29.8741C31.9007 30.1526 31.514 30.3228 31.0808 30.3228C30.6476 30.3228 30.2608 30.1526 29.9824 29.8741C29.8741 29.7658 29.7812 29.6266 29.7039 29.4874C29.642 29.6111 29.5646 29.7194 29.4873 29.8122C29.4409 29.7349 29.379 29.673 29.3171 29.6111C29.4873 29.4874 29.5801 29.3327 29.6265 29.147ZM34.8711 36.4802C34.6236 36.4028 34.3915 36.2636 34.2214 36.0934C34.1131 35.9851 34.0202 35.8458 33.9429 35.7066C33.8655 35.8458 33.7727 35.9851 33.6644 36.0934C33.3859 36.3719 32.9992 36.542 32.566 36.542C32.1328 36.542 31.746 36.3719 31.4676 36.0934C31.3593 35.9851 31.2664 35.8458 31.1891 35.7066C31.1117 35.8458 31.0189 35.9851 30.9106 36.0934C30.6321 36.3719 30.2454 36.542 29.8122 36.542C29.379 36.542 28.9922 36.3719 28.7138 36.0934C28.5126 35.8923 28.3734 35.6447 28.296 35.3663H28.559C28.6209 35.5828 28.7292 35.7685 28.8839 35.9232C29.116 36.1553 29.4409 36.2945 29.7967 36.2945C30.1525 36.2945 30.4774 36.1553 30.7095 35.9232C30.8642 35.7685 30.9725 35.5828 31.0344 35.3663H31.2974C31.3593 35.5828 31.4676 35.7685 31.6223 35.9232C31.8543 36.1553 32.1792 36.2945 32.535 36.2945C32.8909 36.2945 33.2158 36.1553 33.4478 35.9232C33.6025 35.7685 33.7108 35.5828 33.7727 35.3663H34.0357C34.0976 35.5828 34.2059 35.7685 34.3606 35.9232C34.5926 36.1553 34.9175 36.2945 35.2734 36.2945H35.2888C35.1805 36.3564 35.0258 36.4183 34.8711 36.4802ZM38.4139 34.1441C38.3675 34.1131 38.3211 34.0667 38.2902 34.0203C38.1819 33.912 38.0891 33.7728 38.0117 33.6335C37.9343 33.7728 37.8415 33.912 37.7332 34.0203C37.4547 34.2988 37.068 34.469 36.6348 34.469C36.2016 34.469 35.8148 34.2988 35.5364 34.0203C35.4281 33.912 35.3352 33.7728 35.2579 33.6335C35.1805 33.7728 35.0877 33.912 34.9794 34.0203C34.7009 34.2988 34.3142 34.469 33.881 34.469C33.4478 34.469 33.061 34.2988 32.7826 34.0203C32.6743 33.912 32.5814 33.7728 32.5041 33.6335C32.4267 33.7728 32.3339 33.912 32.2256 34.0203C31.9471 34.2988 31.5604 34.469 31.1272 34.469C30.694 34.469 30.3072 34.2988 30.0288 34.0203C29.9205 33.912 29.8277 33.7728 29.7503 33.6335C29.6729 33.7728 29.5801 33.912 29.4718 34.0203C29.1934 34.2988 28.8066 34.469 28.3734 34.469C28.1877 34.469 28.0021 34.438 27.8319 34.3761C27.8164 34.2833 27.801 34.175 27.7855 34.0822C27.9557 34.175 28.1568 34.2214 28.3734 34.2214C28.7292 34.2214 29.0541 34.0822 29.2862 33.8501C29.4409 33.6954 29.5492 33.5098 29.6111 33.2932H29.8741C29.9359 33.5098 30.0442 33.6954 30.199 33.8501C30.431 34.0822 30.7559 34.2214 31.1117 34.2214C31.4676 34.2214 31.7924 34.0822 32.0245 33.8501C32.1792 33.6954 32.2875 33.5098 32.3494 33.2932H32.6124C32.6743 33.5098 32.7826 33.6954 32.9373 33.8501C33.1693 34.0822 33.4942 34.2214 33.8501 34.2214C34.2059 34.2214 34.5308 34.0822 34.7628 33.8501C34.9175 33.6954 35.0258 33.5098 35.0877 33.2932H35.3507C35.4126 33.5098 35.5209 33.6954 35.6756 33.8501C35.9077 34.0822 36.2326 34.2214 36.5884 34.2214C36.9442 34.2214 37.2691 34.0822 37.5012 33.8501C37.6559 33.6954 37.7642 33.5098 37.826 33.2932H38.0891C38.1509 33.5098 38.2592 33.6954 38.4139 33.8501C38.4449 33.8811 38.4913 33.9275 38.5377 33.9584C38.5222 34.0048 38.4758 34.0822 38.4139 34.1441ZM39.1565 31.9472C38.8781 32.2257 38.4913 32.3959 38.0581 32.3959C37.6249 32.3959 37.2382 32.2257 36.9597 31.9472C36.8514 31.8389 36.7586 31.6997 36.6812 31.5604C36.6039 31.6997 36.511 31.8389 36.4027 31.9472C36.1243 32.2257 35.7375 32.3959 35.3043 32.3959C34.8711 32.3959 34.4844 32.2257 34.2059 31.9472C34.0976 31.8389 34.0048 31.6997 33.9274 31.5604C33.8501 31.6997 33.7572 31.8389 33.6489 31.9472C33.3705 32.2257 32.9837 32.3959 32.5505 32.3959C32.1173 32.3959 31.7306 32.2257 31.4521 31.9472C31.3438 31.8389 31.251 31.6997 31.1736 31.5604C31.0963 31.6997 31.0034 31.8389 30.8951 31.9472C30.6167 32.2257 30.2299 32.3959 29.7967 32.3959C29.4254 32.3959 29.1005 32.2721 28.8375 32.0555C28.9303 32.0246 29.0077 31.9782 29.0851 31.9163C29.2862 32.0555 29.5337 32.1329 29.7967 32.1329C30.1525 32.1329 30.4774 31.9936 30.7095 31.7616C30.8642 31.6069 30.9725 31.4212 31.0344 31.2046H31.2974C31.3593 31.4212 31.4676 31.6069 31.6223 31.7616C31.8543 31.9936 32.1792 32.1329 32.535 32.1329C32.8909 32.1329 33.2158 31.9936 33.4478 31.7616C33.6025 31.6069 33.7108 31.4212 33.7727 31.2046H34.0357C34.0976 31.4212 34.2059 31.6069 34.3606 31.7616C34.5926 31.9936 34.9175 32.1329 35.2734 32.1329C35.6292 32.1329 35.9541 31.9936 36.1861 31.7616C36.3408 31.6069 36.4491 31.4212 36.511 31.2046H36.774C36.8359 31.4212 36.9442 31.6069 37.0989 31.7616C37.331 31.9936 37.6559 32.1329 38.0117 32.1329C38.3675 32.1329 38.6924 31.9936 38.9245 31.7616L38.9399 31.7461C39.0018 31.808 39.0637 31.8544 39.1411 31.9008C39.172 31.9317 39.1565 31.9472 39.1565 31.9472Z" fill="#2A60B7"/>
<path fill-rule="evenodd" clip-rule="evenodd" d="M22.1387 19.354L23.1443 21.5663L20.901 20.7154L20.4369 19.3695L21.2104 19.1838L21.9994 17.7141L18.3947 20.3751L18.0544 22.5564L17.1107 22.5255L16.4609 21.721L15.4862 21.984L15.0066 20.9475L15.7183 20.3596L16.5692 18.9827L12.5004 20.8392L11.0616 22.0768L10.7677 21.1641L10.0096 20.7464L11.7423 19.7717C10.1179 20.3596 6.28113 21.721 3.99146 22.5255C5.75512 24.0571 7.89009 25.0163 9.71564 25.8053L12.949 24.3046L14.9912 25.8208L19.2766 23.856L20.6535 24.9235L24.5985 23.33L26.2075 23.8096L27.2131 22.6493L32.3494 24.645L33.8655 24.1499L34.3296 24.7069L36.1552 23.2217L40.1312 25.0008L41.0749 24.0571L44.989 24.6295C46.0101 24.1035 47.0312 23.4847 47.9594 22.7111L45.0354 21.6282L43.5038 21.8293L42.5601 20.5143L39.8218 22.7421L37.826 21.4116L38.4294 21.0712L36.6038 19.4004L34.3451 21.195L33.2776 20.6535L32.7362 21.3961L31.4985 19.1065L31.7306 18.6578L30.9106 17.8533L30.3537 16.3681L29.1469 17.5439L29.2398 20.7309L26.1766 17.2345L26.7644 16.4609L26.0992 14.5271L22.1387 19.354Z" fill="#2A60B7"/>
<path d="M21.9065 51.332C22.3242 51.4867 22.7884 51.5022 22.7884 51.5022C22.7729 51.5486 22.7574 51.595 22.7419 51.6414C22.5872 52.1675 22.9121 52.6006 23.4536 52.7553C24.3973 53.0183 23.8868 54.256 23.0359 53.9466C23.1596 53.8847 23.268 53.7145 23.237 53.5289C23.2061 53.2504 22.8812 53.2349 22.6491 53.2504C22.5408 53.2659 22.3242 53.3278 22.0148 53.3432C21.7209 53.3432 21.4733 53.1731 21.4269 53.1576C21.2413 53.1112 20.9783 53.1112 20.8081 53.2349C20.6224 53.3742 20.576 53.6372 20.8236 53.8692C20.2821 53.8847 20.0036 53.6062 19.9881 53.2813C19.9727 52.8946 20.2202 52.678 20.576 52.5388C20.4523 52.3995 20.313 52.2603 20.2202 52.2139C19.9881 52.121 19.7097 52.2448 19.7561 52.678C19.0135 52.1829 19.524 51.2392 20.2976 51.4713C20.9164 51.6569 20.9319 52.1365 21.5043 52.152C21.6899 51.9663 21.7828 51.7033 21.8756 51.3784L21.9065 51.332Z" fill="#2A60B7"/>
<path d="M30.3383 51.363C30.4311 51.6879 30.5394 51.9509 30.7096 52.1365C31.282 52.121 31.2975 51.626 31.9163 51.4558C32.6898 51.2237 33.2004 52.1829 32.4578 52.678C32.5042 52.2448 32.2102 52.1365 31.9937 52.2139C31.9008 52.2448 31.7616 52.3995 31.6378 52.5388C32.0091 52.6625 32.2567 52.8946 32.2257 53.2813C32.2102 53.5908 31.9318 53.8847 31.3903 53.8692C31.6533 53.6372 31.5914 53.3587 31.4058 53.2349C31.2511 53.1112 30.9881 53.1112 30.7869 53.1576C30.7405 53.1731 30.493 53.3432 30.199 53.3432C29.8742 53.3432 29.6576 53.2659 29.5647 53.2504C29.3327 53.2349 28.9923 53.2504 28.9614 53.5289C28.9459 53.7145 29.0387 53.8847 29.1625 53.9466C28.3271 54.2715 27.8011 53.0183 28.7448 52.7553C29.2863 52.6006 29.6111 52.1829 29.4564 51.6414C29.441 51.595 29.4255 51.5486 29.41 51.5022C29.41 51.5022 29.8742 51.4867 30.2919 51.332L30.3383 51.363Z" fill="#2A60B7"/>
<path d="M31.1273 48.7484C31.4831 49.7385 31.2511 51.0071 30.3228 51.332C30.1062 50.5275 29.9051 49.7849 29.7968 49.3827C29.6731 48.8567 29.8432 48.0832 29.8587 47.4334C29.8742 46.6753 29.5029 45.0045 29.2553 43.8132C29.0852 42.9933 29.0078 42.328 29.0078 41.6783C29.0078 40.9511 29.1006 40.224 29.2244 39.3112C29.2553 39.141 29.2553 38.9554 29.2553 38.8007C31.4367 39.4969 35.2735 38.4758 36.9753 37.563C40.286 35.7994 42.2044 32.798 42.8387 30.6631C41.9723 30.6785 40.9512 30.4001 40.9358 29.2398C40.9203 28.6983 41.5237 27.9866 42.5447 27.5225C47.2943 25.3721 51.1155 22.8348 51.1465 18.3174C52.3223 20.8236 52.2449 23.9797 50.1254 25.9599C49.6613 26.3931 49.1198 26.7799 48.501 27.2131C47.449 27.9557 46.8147 28.7137 46.6445 29.9978C47.0467 29.5956 47.5263 29.3016 48.0678 29.0696L49.5994 28.4507C50.6978 28.0021 51.5951 27.1976 52.1211 26.2075C52.1521 26.6097 52.1521 26.9965 52.1521 27.3987C52.1521 29.9514 51.0382 32.1637 48.3927 32.8754L46.7683 33.2931C45.9328 33.4942 45.1438 34.113 44.7725 34.8402C45.3295 34.4998 45.9019 34.3296 46.6136 34.3142L48.238 34.2987C49.2591 34.2832 50.1409 33.9429 50.899 33.3395C50.5895 34.0821 50.2337 34.8247 49.816 35.5518C48.9961 36.8978 47.4335 37.7487 45.7163 37.563L44.6333 37.4393C43.5194 37.3155 42.6066 37.7641 42.0342 38.3675C42.6685 38.1819 43.3337 38.1973 43.9526 38.352L45.2521 38.6924C45.9947 38.8935 46.8147 38.909 47.6346 38.646C47.1241 39.2339 46.5826 39.8063 45.9793 40.3478C44.9737 41.1832 43.6277 41.2451 42.6994 40.8428L41.4927 40.3478C40.843 40.0538 39.9147 40.0848 39.203 40.5953C40.286 40.5644 40.9977 41.1213 41.864 41.6473C42.3591 41.9567 42.9934 42.1578 43.705 42.1269C43.2564 42.4363 42.7923 42.7148 42.3127 42.9778C41.2607 43.5193 39.9921 43.3955 39.1102 42.7767L38.3986 42.2971C37.8262 41.9103 37.0526 41.7711 36.3255 42.0341C36.7741 42.1114 37.3466 42.3744 37.7643 42.8231L38.0582 43.1325C38.5688 43.6895 39.1566 44.0143 39.8064 44.1536C39.3732 44.3238 38.94 44.463 38.4914 44.6022C37.5477 44.8807 36.5266 44.5713 35.9078 43.8751L35.4901 43.411C35.0878 42.9469 34.4226 42.6839 33.7419 42.8076C34.0513 42.9469 34.4226 43.2253 34.6701 43.6276L35.0569 44.2309C35.3199 44.6486 35.7221 44.989 36.1089 45.1747C35.7376 45.2365 35.3663 45.2829 35.0105 45.3294C34.0513 45.4067 33.2468 44.8498 32.7982 44.1691C32.4114 43.5812 31.8235 43.0242 31.1273 43.148C30.7251 43.2099 30.5394 43.5812 30.5394 43.9215C30.5239 44.9271 31.808 46.8764 32.0401 47.7273C32.365 48.8567 31.4677 49.0423 31.1273 48.7484Z" fill="#2A60B7"/>
<path d="M29.4409 51.5023C29.0541 52.2294 28.1568 52.6935 27.2904 52.5234C27.2904 52.5234 26.981 53.266 26.0992 53.266C25.2328 53.266 24.9079 52.5234 24.9079 52.5234C24.0571 52.6935 23.1443 52.2449 22.7575 51.5023C22.7884 51.3785 22.8658 51.2238 23.036 51.0072C23.3454 50.605 23.6548 50.3884 23.7167 49.7231C24.3355 50.0326 24.5985 49.3673 24.6604 48.6557C24.7378 47.7274 24.9544 45.8245 25.666 45.1902C24.6295 45.0046 24.1189 43.0088 23.1133 42.8387C22.9432 43.8597 22.2934 46.4124 22.3243 47.418C22.3398 48.0832 22.5255 48.8413 22.3862 49.3673C22.2934 49.7696 22.0923 50.5122 21.8602 51.3166C20.932 50.9917 20.6999 49.7231 21.0557 48.733C20.7154 49.027 19.8181 48.8413 20.1275 47.7274C20.3595 46.8765 21.6591 44.9427 21.6281 43.9216C21.6127 43.5813 21.4425 43.21 21.0403 43.1481C20.3441 43.0398 19.7562 43.5967 19.3694 44.1691C18.9208 44.8499 18.1163 45.4223 17.1571 45.3449C16.7858 45.2985 16.4145 45.2521 16.0587 45.1902C16.4454 45.0046 16.8322 44.6642 17.1107 44.2465L17.4974 43.6431C17.745 43.2409 18.1163 42.9624 18.4257 42.8232C17.745 42.6994 17.0797 42.9624 16.6775 43.4265L16.2598 43.8907C15.641 44.5868 14.6199 44.8963 13.6762 44.6178C13.243 44.4786 12.7943 44.3238 12.3611 44.1691C13.0264 44.0299 13.6143 43.705 14.1093 43.1481L14.4033 42.8387C14.821 42.39 15.3934 42.127 15.8421 42.0496C15.0995 41.7866 14.3414 41.9259 13.769 42.3126L13.0573 42.7922C12.1755 43.4111 10.9069 43.5503 9.85489 42.9934C9.39076 42.7304 8.91117 42.4364 8.46252 42.1425C9.17417 42.1734 9.793 41.9723 10.3035 41.6629C11.1699 41.1369 11.897 40.5799 12.9645 40.6109C12.2529 40.1003 11.3246 40.0694 10.6748 40.3633L9.46812 40.8584C8.5244 41.2606 7.19391 41.1988 6.18831 40.3633C5.60042 39.8219 5.04347 39.2494 4.53294 38.6615C5.35289 38.9091 6.15737 38.8936 6.91544 38.708L8.21498 38.3676C8.81834 38.2129 9.49906 38.1974 10.1334 38.3831C9.56094 37.7797 8.6327 37.3465 7.53427 37.4548L6.45132 37.5786C4.73406 37.7642 3.17151 36.9133 2.35156 35.5674C1.93385 34.8403 1.57802 34.0977 1.26861 33.3551C2.04214 33.9739 2.9085 34.2988 3.92957 34.3143L5.554 34.3297C6.25019 34.3452 6.83808 34.5308 7.37956 34.8557C7.00826 34.1286 6.21925 33.5098 5.38383 33.3087L3.7594 32.8909C1.11389 32.1793 0 29.967 0 27.4143C0 27.012 0.0154727 26.6098 0.0309434 26.223C0.572421 27.1977 1.45425 28.0022 2.55268 28.4663L4.08428 29.0851C4.62576 29.3017 5.10535 29.6111 5.50759 29.9979C5.33741 28.7138 4.70311 27.9558 3.6511 27.2132C3.03227 26.78 2.49079 26.3777 2.02667 25.9446C-0.0928284 23.9643 -0.170179 20.8083 1.0056 18.302C1.06748 22.7112 4.84235 25.3567 9.60735 27.5071C10.6284 27.9712 11.2163 28.6829 11.2163 29.2244C11.2163 30.3847 10.1643 30.6632 9.31341 30.6477C9.96318 32.7981 11.8661 35.7994 15.1768 37.5631C17.0643 38.5687 20.6844 39.4506 22.8039 38.8317C22.8194 40.5954 24.2427 42.9779 26.0218 42.9779C26.4396 42.9779 26.8727 42.916 27.275 42.8387C27.507 42.7922 27.7082 42.9315 27.7236 43.1945C27.7546 43.8288 27.1822 45.0974 26.5014 45.2212C27.1976 45.8555 27.4142 47.7584 27.507 48.6866C27.5689 49.4137 27.8319 50.0635 28.4508 49.7541C28.5281 50.4039 28.8066 50.6359 29.1315 51.0382C29.3171 51.1929 29.4099 51.3785 29.4409 51.5023Z" fill="#2A60B7"/>
<path fill-rule="evenodd" clip-rule="evenodd" d="M25.8516 30.8023C26.3157 30.5083 26.3621 30.2453 26.7798 30.0752C26.9809 29.9978 27.2903 29.9823 27.4451 30.168C27.3522 30.168 27.3058 30.168 27.2749 30.2917C27.2439 30.4774 27.1356 30.6166 26.9655 30.663C26.8262 30.694 26.7334 30.6785 26.5942 30.5857C26.393 30.431 26.2074 30.8178 25.8516 30.8023Z" fill="#2A60B7"/>
<path fill-rule="evenodd" clip-rule="evenodd" d="M26.8263 37.9962C26.8572 38.0736 26.8572 38.1664 26.8572 38.2437C26.8572 38.6924 26.5168 39.0637 26.0991 39.0637C25.6814 39.0637 25.3411 38.6924 25.3411 38.2437C25.3411 38.1509 25.3565 38.0736 25.372 37.9962C25.4648 38.3211 25.7588 38.5686 26.0991 38.5686C26.4395 38.5532 26.7334 38.3211 26.8263 37.9962Z" fill="#2A60B7"/>
<path fill-rule="evenodd" clip-rule="evenodd" d="M25.1864 37.9962C25.2173 38.0736 25.2173 38.1664 25.2173 38.2437C25.2173 38.6924 24.8769 39.0637 24.4592 39.0637C24.0415 39.0637 23.7012 38.6924 23.7012 38.2437C23.7012 38.1509 23.7166 38.0736 23.7321 37.9962C23.8249 38.3211 24.1189 38.5686 24.4592 38.5686C24.7996 38.5532 25.0781 38.3211 25.1864 37.9962Z" fill="#2A60B7"/>
<path fill-rule="evenodd" clip-rule="evenodd" d="M27.0119 37.9962C26.981 38.0736 26.981 38.1664 26.981 38.2437C26.981 38.6924 27.3213 39.0637 27.739 39.0637C28.1567 39.0637 28.4971 38.6924 28.4971 38.2437C28.4971 38.1509 28.4816 38.0736 28.4662 37.9962C28.3733 38.3211 28.0794 38.5686 27.739 38.5686C27.3987 38.5686 27.1202 38.3211 27.0119 37.9962Z" fill="#2A60B7"/>
<path fill-rule="evenodd" clip-rule="evenodd" d="M26.1921 39.2494C26.1611 39.3267 26.1611 39.4196 26.1611 39.4969C26.1611 39.9456 26.5015 40.3169 26.9192 40.3169C27.3369 40.3169 27.6773 39.9456 27.6773 39.4969C27.6773 39.4041 27.6618 39.3267 27.6463 39.2494C27.5535 39.5743 27.2596 39.8218 26.9192 39.8218C26.5788 39.8218 26.3004 39.5743 26.1921 39.2494Z" fill="#2A60B7"/>
<path fill-rule="evenodd" clip-rule="evenodd" d="M24.5522 39.2494C24.5212 39.3267 24.5212 39.4196 24.5212 39.4969C24.5212 39.9456 24.8616 40.3169 25.2793 40.3169C25.697 40.3169 26.0374 39.9456 26.0374 39.4969C26.0374 39.4041 26.0219 39.3267 26.0064 39.2494C25.9136 39.5743 25.6197 39.8218 25.2793 39.8218C24.9389 39.8218 24.645 39.5743 24.5522 39.2494Z" fill="#2A60B7"/>
<path fill-rule="evenodd" clip-rule="evenodd" d="M26.8263 40.4561C26.8572 40.5334 26.8572 40.6262 26.8572 40.7036C26.8572 41.1522 26.5168 41.5235 26.0991 41.5235C25.6814 41.5235 25.3411 41.1522 25.3411 40.7036C25.3411 40.6108 25.3565 40.5334 25.372 40.4561C25.4648 40.7809 25.7588 41.0285 26.0991 41.0285C26.4395 41.013 26.7334 40.7809 26.8263 40.4561Z" fill="#2A60B7"/>
</svg>
